
  <svg xmlns="http://www.w3.org/2000/svg" width="1368" height="768" viewBox="0 0 1368 768">
    <defs>
      <linearGradient id="bg" x1="0" y1="0" x2="1" y2="1">
        <stop offset="0" stop-color="#08111f"/>
        <stop offset="0.52" stop-color="#101827"/>
        <stop offset="1" stop-color="#172033"/>
      </linearGradient>
      <pattern id="grid" width="48" height="48" patternUnits="userSpaceOnUse">
        <path d="M 48 0 L 0 0 0 48" fill="none" stroke="#243449" stroke-width="1" opacity="0.55"/>
      </pattern>
      <filter id="shadow" x="-20%" y="-20%" width="140%" height="140%">
        <feDropShadow dx="0" dy="12" stdDeviation="14" flood-color="#020617" flood-opacity="0.35"/>
      </filter>
    </defs>
    <rect width="1368" height="768" fill="url(#bg)"/>
    <rect width="1368" height="768" fill="url(#grid)" opacity="0.5"/>
    <text x="70" y="76" font-size="38" font-weight="900" fill="#f8fafc">데이터/ML 흐름도</text>
    <text x="72" y="114" font-size="21" font-weight="500" fill="#94a3b8">학습형 모델이 아닌 Feature Engineering 기반 수요 점수화 파이프라인</text>
    <g filter="url(#shadow)">
      
      <g>
        <rect x="70" y="172" width="272" height="160" rx="18" fill="#111827" stroke="#334155" stroke-width="2"/>
        <circle cx="112" cy="216" r="23" fill="#38bdf8"/>
        <text x="112" y="224" font-size="22" font-weight="900" fill="#08111f" text-anchor="middle">1</text>
        <text x="146" y="222" font-size="23" font-weight="850" fill="#f8fafc">데이터 수집</text>
        <text x="104" y="268" font-size="19" font-weight="500" fill="#cbd5e1">실거래가 API, 입주예정,</text>
<text x="104" y="296" font-size="19" font-weight="500" fill="#cbd5e1">대수선, 업체 수집</text>
      </g>
    

      <g>
        <rect x="392" y="172" width="272" height="160" rx="18" fill="#111827" stroke="#334155" stroke-width="2"/>
        <circle cx="434" cy="216" r="23" fill="#38bdf8"/>
        <text x="434" y="224" font-size="22" font-weight="900" fill="#08111f" text-anchor="middle">2</text>
        <text x="468" y="222" font-size="23" font-weight="850" fill="#f8fafc">정제/표준화</text>
        <text x="426" y="268" font-size="19" font-weight="500" fill="#cbd5e1">금액·면적·연식 수치화, 행정구역</text>
<text x="426" y="296" font-size="19" font-weight="500" fill="#cbd5e1">정규화</text>
      </g>
    

      <g>
        <rect x="714" y="172" width="272" height="160" rx="18" fill="#111827" stroke="#334155" stroke-width="2"/>
        <circle cx="756" cy="216" r="23" fill="#38bdf8"/>
        <text x="756" y="224" font-size="22" font-weight="900" fill="#08111f" text-anchor="middle">3</text>
        <text x="790" y="222" font-size="23" font-weight="850" fill="#f8fafc">피처 엔지니어링</text>
        <text x="748" y="268" font-size="19" font-weight="500" fill="#cbd5e1">노후도 계산 및 아파트 4대</text>
<text x="748" y="296" font-size="19" font-weight="500" fill="#cbd5e1">세그먼트 분류</text>
      </g>
    

      <g>
        <rect x="1036" y="172" width="272" height="160" rx="18" fill="#111827" stroke="#334155" stroke-width="2"/>
        <circle cx="1078" cy="216" r="23" fill="#38bdf8"/>
        <text x="1078" y="224" font-size="22" font-weight="900" fill="#08111f" text-anchor="middle">4</text>
        <text x="1112" y="222" font-size="23" font-weight="850" fill="#f8fafc">지역 집계</text>
        <text x="1070" y="268" font-size="19" font-weight="500" fill="#cbd5e1">시군구별 거래건수, 평균노후도,</text>
<text x="1070" y="296" font-size="19" font-weight="500" fill="#cbd5e1">업체수 등 집계</text>
      </g>
    

      <g>
        <rect x="70" y="427" width="272" height="160" rx="18" fill="#111827" stroke="#334155" stroke-width="2"/>
        <circle cx="112" cy="471" r="23" fill="#38bdf8"/>
        <text x="112" y="479" font-size="22" font-weight="900" fill="#08111f" text-anchor="middle">5</text>
        <text x="146" y="477" font-size="23" font-weight="850" fill="#f8fafc">공급 데이터 결합</text>
        <text x="104" y="523" font-size="19" font-weight="500" fill="#cbd5e1">신규 입주예정 물량을 시군구 단위</text>
<text x="104" y="551" font-size="19" font-weight="500" fill="#cbd5e1">LEFT JOIN</text>
      </g>
    

      <g>
        <rect x="392" y="427" width="272" height="160" rx="18" fill="#111827" stroke="#334155" stroke-width="2"/>
        <circle cx="434" cy="471" r="23" fill="#f97316"/>
        <text x="434" y="479" font-size="22" font-weight="900" fill="#08111f" text-anchor="middle">6</text>
        <text x="468" y="477" font-size="23" font-weight="850" fill="#f8fafc">수요 점수화</text>
        <text x="426" y="523" font-size="19" font-weight="500" fill="#cbd5e1">7개 핵심 지표 Min-Max</text>
<text x="426" y="551" font-size="19" font-weight="500" fill="#cbd5e1">정규화 및 가중합</text>
      </g>
    

      <g>
        <rect x="714" y="427" width="272" height="160" rx="18" fill="#111827" stroke="#334155" stroke-width="2"/>
        <circle cx="756" cy="471" r="23" fill="#f97316"/>
        <text x="756" y="479" font-size="22" font-weight="900" fill="#08111f" text-anchor="middle">7</text>
        <text x="790" y="477" font-size="23" font-weight="850" fill="#f8fafc">등급/랭킹</text>
        <text x="748" y="523" font-size="19" font-weight="500" fill="#cbd5e1">수요 점수 기반 S/A/B 등급</text>
<text x="748" y="551" font-size="19" font-weight="500" fill="#cbd5e1">부여 및 결과 저장</text>
      </g>
    

      <g>
        <rect x="1036" y="427" width="272" height="160" rx="18" fill="#111827" stroke="#334155" stroke-width="2"/>
        <circle cx="1078" cy="471" r="23" fill="#f97316"/>
        <text x="1078" y="479" font-size="22" font-weight="900" fill="#08111f" text-anchor="middle">8</text>
        <text x="1112" y="477" font-size="23" font-weight="850" fill="#f8fafc">대시보드 제공</text>
        <text x="1070" y="523" font-size="19" font-weight="500" fill="#cbd5e1">지도 마커, 차트, 검색 필터,</text>
<text x="1070" y="551" font-size="19" font-weight="500" fill="#cbd5e1">LLM 챗봇 연동</text>
      </g>
    
    
    <path d="M 342 252 C 367 252, 367 252, 378 252" fill="none" stroke="#94a3b8" stroke-width="3"/>
    <path d="M 374 244 L 392 252 L 374 260" fill="none" stroke="#94a3b8" stroke-width="3" stroke-linecap="round" stroke-linejoin="round"/>
  
    
    <path d="M 664 252 C 689 252, 689 252, 700 252" fill="none" stroke="#94a3b8" stroke-width="3"/>
    <path d="M 696 244 L 714 252 L 696 260" fill="none" stroke="#94a3b8" stroke-width="3" stroke-linecap="round" stroke-linejoin="round"/>
  
    
    <path d="M 986 252 C 1011 252, 1011 252, 1022 252" fill="none" stroke="#94a3b8" stroke-width="3"/>
    <path d="M 1018 244 L 1036 252 L 1018 260" fill="none" stroke="#94a3b8" stroke-width="3" stroke-linecap="round" stroke-linejoin="round"/>
  
    <path d="M 1188 332 C 1188 382, 214 382, 214 427" fill="none" stroke="#94a3b8" stroke-width="3"/>
    <path d="M 206 409 L 214 427 L 222 409" fill="none" stroke="#94a3b8" stroke-width="3" stroke-linecap="round" stroke-linejoin="round"/>
    
    <path d="M 342 507 C 367 507, 367 507, 378 507" fill="none" stroke="#94a3b8" stroke-width="3"/>
    <path d="M 374 499 L 392 507 L 374 515" fill="none" stroke="#94a3b8" stroke-width="3" stroke-linecap="round" stroke-linejoin="round"/>
  
    
    <path d="M 664 507 C 689 507, 689 507, 700 507" fill="none" stroke="#94a3b8" stroke-width="3"/>
    <path d="M 696 499 L 714 507 L 696 515" fill="none" stroke="#94a3b8" stroke-width="3" stroke-linecap="round" stroke-linejoin="round"/>
  
    
    <path d="M 986 507 C 1011 507, 1011 507, 1022 507" fill="none" stroke="#94a3b8" stroke-width="3"/>
    <path d="M 1018 499 L 1036 507 L 1018 515" fill="none" stroke="#94a3b8" stroke-width="3" stroke-linecap="round" stroke-linejoin="round"/>
  
  
    <g>
      <rect x="184" y="660" width="1000" height="52" rx="14" fill="#0f172a" stroke="#25364d" stroke-width="2"/>
      <text x="684" y="694" font-size="19" font-weight="800" fill="#e2e8f0" text-anchor="middle">
        수요점수 = 거래건수 20% + 전월세 20% + 거래금액 15% + 노후도 15% + 면적 10% + 신규입주 10% + 대수선 10%
      </text>
    </g>
  
    </g>
    <text x="1298" y="732" font-size="16" font-weight="600" fill="#64748b" text-anchor="end">O2O Demand Forecasting Solution</text>
  </svg>