
  <svg xmlns="http://www.w3.org/2000/svg" width="1368" height="768" viewBox="0 0 1368 768">
    <defs>
      <linearGradient id="bg" x1="0" y1="0" x2="1" y2="1">
        <stop offset="0" stop-color="#08111f"/>
        <stop offset="0.52" stop-color="#101827"/>
        <stop offset="1" stop-color="#172033"/>
      </linearGradient>
      <pattern id="grid" width="48" height="48" patternUnits="userSpaceOnUse">
        <path d="M 48 0 L 0 0 0 48" fill="none" stroke="#243449" stroke-width="1" opacity="0.55"/>
      </pattern>
      <filter id="shadow" x="-20%" y="-20%" width="140%" height="140%">
        <feDropShadow dx="0" dy="12" stdDeviation="14" flood-color="#020617" flood-opacity="0.35"/>
      </filter>
    </defs>
    <rect width="1368" height="768" fill="url(#bg)"/>
    <rect width="1368" height="768" fill="url(#grid)" opacity="0.5"/>
    <text x="70" y="76" font-size="38" font-weight="900" fill="#f8fafc">프로젝트 구성도</text>
    <text x="72" y="114" font-size="21" font-weight="500" fill="#94a3b8">공공데이터 수집부터 수요 점수 산출, Flask API, Chart.js 대시보드까지의 시스템 구조</text>
    <g filter="url(#shadow)">
      
    
    <g>
      <rect x="64" y="150" width="360" height="210" rx="18" fill="#0f172a" stroke="#334155" stroke-width="2"/>
      <rect x="64" y="150" width="8" height="210" rx="4" fill="#f97316"/>
      <text x="244" y="192" font-size="24" font-weight="800" fill="#f8fafc" text-anchor="middle">데이터 소스</text>
      <text x="98" y="234" font-size="19" font-weight="500" fill="#cbd5e1">국토부 실거래가 (매매/전월세)</text>
<text x="98" y="262" font-size="19" font-weight="500" fill="#cbd5e1">한국부동산원 입주예정 CSV</text>
<text x="98" y="290" font-size="19" font-weight="500" fill="#cbd5e1">대수선 이력 &amp; 인테리어 업체</text>
    </g>
  
    
    <g>
      <rect x="504" y="150" width="360" height="210" rx="18" fill="#111827" stroke="#334155" stroke-width="2"/>
      <rect x="504" y="150" width="8" height="210" rx="4" fill="#38bdf8"/>
      <text x="684" y="192" font-size="24" font-weight="800" fill="#f8fafc" text-anchor="middle">수집 계층</text>
      <text x="538" y="234" font-size="19" font-weight="500" fill="#cbd5e1">src/collector.py</text>
<text x="538" y="262" font-size="19" font-weight="500" fill="#cbd5e1">collect_*.py 수집 스크립트</text>
<text x="538" y="290" font-size="19" font-weight="500" fill="#cbd5e1">requests + XML/JSON API</text>
<text x="538" y="318" font-size="19" font-weight="500" fill="#cbd5e1">자동 수집 및 정규화</text>
    </g>
  
    
    <g>
      <rect x="944" y="150" width="360" height="210" rx="18" fill="#111827" stroke="#334155" stroke-width="2"/>
      <rect x="944" y="150" width="8" height="210" rx="4" fill="#34d399"/>
      <text x="1124" y="192" font-size="24" font-weight="800" fill="#f8fafc" text-anchor="middle">분석 파이프라인</text>
      <text x="978" y="234" font-size="19" font-weight="500" fill="#cbd5e1">src/pipeline.py</text>
<text x="978" y="262" font-size="19" font-weight="500" fill="#cbd5e1">pandas 전처리 및 정제</text>
<text x="978" y="290" font-size="19" font-weight="500" fill="#cbd5e1">아파트 연식 세그먼트 분류</text>
<text x="978" y="318" font-size="19" font-weight="500" fill="#cbd5e1">7개 지표 Min-Max 가중합</text>
    </g>
  
    
    <g>
      <rect x="64" y="440" width="360" height="210" rx="18" fill="#0f172a" stroke="#334155" stroke-width="2"/>
      <rect x="64" y="440" width="8" height="210" rx="4" fill="#a78bfa"/>
      <text x="244" y="482" font-size="24" font-weight="800" fill="#f8fafc" text-anchor="middle">저장 데이터</text>
      <text x="98" y="524" font-size="19" font-weight="500" fill="#cbd5e1">raw_api_collected_all.csv</text>
<text x="98" y="552" font-size="19" font-weight="500" fill="#cbd5e1">raw_renovation/interior.csv</text>
<text x="98" y="580" font-size="19" font-weight="500" fill="#cbd5e1">인테리어_수요점수_결과.csv</text>
<text x="98" y="608" font-size="19" font-weight="500" fill="#cbd5e1">sigungu_coordinates.csv</text>
    </g>
  
    
    <g>
      <rect x="504" y="440" width="360" height="210" rx="18" fill="#111827" stroke="#334155" stroke-width="2"/>
      <rect x="504" y="440" width="8" height="210" rx="4" fill="#fbbf24"/>
      <text x="684" y="482" font-size="24" font-weight="800" fill="#f8fafc" text-anchor="middle">백엔드 API</text>
      <text x="538" y="524" font-size="19" font-weight="500" fill="#cbd5e1">app.py / Flask</text>
<text x="538" y="552" font-size="19" font-weight="500" fill="#cbd5e1">/api/demand, /api/map-data</text>
<text x="538" y="580" font-size="19" font-weight="500" fill="#cbd5e1">/api/collect, /api/search</text>
<text x="538" y="608" font-size="19" font-weight="500" fill="#cbd5e1">/api/chat (Ollama 챗봇)</text>
    </g>
  
    
    <g>
      <rect x="944" y="440" width="360" height="210" rx="18" fill="#111827" stroke="#334155" stroke-width="2"/>
      <rect x="944" y="440" width="8" height="210" rx="4" fill="#e879f9"/>
      <text x="1124" y="482" font-size="24" font-weight="800" fill="#f8fafc" text-anchor="middle">대시보드</text>
      <text x="978" y="524" font-size="19" font-weight="500" fill="#cbd5e1">index / analytics / guide.html</text>
<text x="978" y="552" font-size="19" font-weight="500" fill="#cbd5e1">Naver Maps API (지도 마커)</text>
<text x="978" y="580" font-size="19" font-weight="500" fill="#cbd5e1">Chart.js 시각화 &amp; KPI</text>
<text x="978" y="608" font-size="19" font-weight="500" fill="#cbd5e1">챗봇 UI &amp; 구매 가이드</text>
    </g>
  
    
    <path d="M 424 255 C 464 255, 464 255, 490 255" fill="none" stroke="#94a3b8" stroke-width="3"/>
    <path d="M 486 247 L 504 255 L 486 263" fill="none" stroke="#94a3b8" stroke-width="3" stroke-linecap="round" stroke-linejoin="round"/>
  
    
    <path d="M 864 255 C 904 255, 904 255, 930 255" fill="none" stroke="#94a3b8" stroke-width="3"/>
    <path d="M 926 247 L 944 255 L 926 263" fill="none" stroke="#94a3b8" stroke-width="3" stroke-linecap="round" stroke-linejoin="round"/>
  
    
    <path d="M 244 360 L 244 424" fill="none" stroke="#94a3b8" stroke-width="3"/>
    <path d="M 236 422 L 244 440 L 252 422" fill="none" stroke="#94a3b8" stroke-width="3" stroke-linecap="round" stroke-linejoin="round"/>
  
    
    <path d="M 424 545 C 464 545, 464 545, 490 545" fill="none" stroke="#94a3b8" stroke-width="3"/>
    <path d="M 486 537 L 504 545 L 486 553" fill="none" stroke="#94a3b8" stroke-width="3" stroke-linecap="round" stroke-linejoin="round"/>
  
    
    <path d="M 864 545 C 904 545, 904 545, 930 545" fill="none" stroke="#94a3b8" stroke-width="3"/>
    <path d="M 926 537 L 944 545 L 926 553" fill="none" stroke="#94a3b8" stroke-width="3" stroke-linecap="round" stroke-linejoin="round"/>
  
    
    <path d="M 684 360 L 684 424" fill="none" stroke="#94a3b8" stroke-width="3"/>
    <path d="M 676 422 L 684 440 L 692 422" fill="none" stroke="#94a3b8" stroke-width="3" stroke-linecap="round" stroke-linejoin="round"/>
  
    
    <path d="M 1124 360 C 1124 360, 1124 440, 1110 440" fill="none" stroke="#94a3b8" stroke-width="3"/>
    <path d="M 1106 432 L 1124 440 L 1106 448" fill="none" stroke="#94a3b8" stroke-width="3" stroke-linecap="round" stroke-linejoin="round"/>
  
  
    </g>
    <text x="1298" y="732" font-size="16" font-weight="600" fill="#64748b" text-anchor="end">O2O Demand Forecasting Solution</text>
  </svg>